<svg xmlns="http://www.w3.org/2000/svg" viewBox="0 0 800 260" width="800" height="260" role="img" aria-label="recently active repositories">
  <rect width="800" height="260" rx="10" fill="#0d1117" stroke="#30363d"/>
  <path d="M 0,10 A 10,10 0 0 1 10,0 L 790,0 A 10,10 0 0 1 800,10 L 800,36 L 0,36 Z" fill="#161b22"/>
  <line x1="0" y1="36" x2="800" y2="36" stroke="#30363d"/>
  <circle cx="22" cy="18" r="6" fill="#ff5f57"/>
  <circle cx="42" cy="18" r="6" fill="#febc2e"/>
  <circle cx="62" cy="18" r="6" fill="#28c840"/>
  <text x="400" y="22" text-anchor="middle" font-family="ui-monospace, SFMono-Regular, 'SF Mono', Menlo, Monaco, Consolas, monospace" font-size="11" fill="#6e7681" letter-spacing="1">repo-floor — 2 active · 6 idle · recent edits</text>
  <g font-family="ui-monospace, SFMono-Regular, 'SF Mono', Menlo, Monaco, Consolas, monospace">
    <g transform="translate(10, 46)">
      <rect width="186" height="96" rx="6" fill="#161b22" stroke="#30363d"/>
      <circle cx="20" cy="20" r="4" fill="#60a5fa"><animate attributeName="opacity" values="1;0.3;1" dur="1.8s" repeatCount="indefinite" begin="0.0s"/></circle>
      <text x="32" y="24" fill="#60a5fa" font-size="11" font-weight="700" letter-spacing="0.6">TRIANGLESTRIP</text>
      <text x="12" y="44" fill="#6e7681" font-size="10">Mixed · main@54c3ec5</text>
      <text x="12" y="68" fill="#c9d1d9" font-size="11">Restyle profile README after dalind…</text>
      <text x="12" y="84" fill="#8b949e" font-size="11">24m ago</text>
    </g>
    <g transform="translate(208, 46)">
      <rect width="186" height="96" rx="6" fill="#161b22" stroke="#30363d"/>
      <circle cx="20" cy="20" r="4" fill="#3178c6"><animate attributeName="opacity" values="1;0.3;1" dur="1.8s" repeatCount="indefinite" begin="0.2s"/></circle>
      <text x="32" y="24" fill="#3178c6" font-size="11" font-weight="700" letter-spacing="0.6">MIMO-CODEFORME</text>
      <text x="12" y="44" fill="#6e7681" font-size="10">TypeScript · LLMContent@2dde604</text>
      <text x="12" y="68" fill="#c9d1d9" font-size="11">chore(serve): 移除冗余 run-distWebServe…</text>
      <text x="12" y="84" fill="#8b949e" font-size="11">17h ago</text>
    </g>
    <g transform="translate(406, 46)">
      <rect width="186" height="96" rx="6" fill="#161b22" stroke="#30363d"/>
      <circle cx="20" cy="20" r="4" fill="none" stroke="#6e7681" stroke-width="1.5"/>
      <text x="32" y="24" fill="#6e7681" font-size="11" font-weight="700" letter-spacing="0.6">TRIANGLESTRIP.G…</text>
      <text x="12" y="44" fill="#6e7681" font-size="10">HTML · master@idle</text>
      <text x="12" y="68" fill="#c9d1d9" font-size="11">my blog</text>
      <text x="12" y="84" fill="#8b949e" font-size="11">34m ago</text>
    </g>
    <g transform="translate(604, 46)">
      <rect width="186" height="96" rx="6" fill="#161b22" stroke="#30363d"/>
      <circle cx="20" cy="20" r="4" fill="none" stroke="#6e7681" stroke-width="1.5"/>
      <text x="32" y="24" fill="#6e7681" font-size="11" font-weight="700" letter-spacing="0.6">SAG-FORME</text>
      <text x="12" y="44" fill="#6e7681" font-size="10">Mixed · test@idle</text>
      <text x="12" y="68" fill="#c9d1d9" font-size="11">An document retrieval project built…</text>
      <text x="12" y="84" fill="#8b949e" font-size="11">5d ago</text>
    </g>
    <g transform="translate(10, 154)">
      <rect width="186" height="96" rx="6" fill="#161b22" stroke="#30363d"/>
      <circle cx="20" cy="20" r="4" fill="none" stroke="#6e7681" stroke-width="1.5"/>
      <text x="32" y="24" fill="#6e7681" font-size="11" font-weight="700" letter-spacing="0.6">GODOTTOOLS</text>
      <text x="12" y="44" fill="#6e7681" font-size="10">Mixed · main@idle</text>
      <text x="12" y="68" fill="#c9d1d9" font-size="11">no recent push</text>
      <text x="12" y="84" fill="#8b949e" font-size="11">10d ago</text>
    </g>
    <g transform="translate(208, 154)">
      <rect width="186" height="96" rx="6" fill="#161b22" stroke="#30363d"/>
      <circle cx="20" cy="20" r="4" fill="none" stroke="#6e7681" stroke-width="1.5"/>
      <text x="32" y="24" fill="#6e7681" font-size="11" font-weight="700" letter-spacing="0.6">FALCORRENDERING</text>
      <text x="12" y="44" fill="#6e7681" font-size="10">C++ · master@idle</text>
      <text x="12" y="68" fill="#c9d1d9" font-size="11">Real-Time Rendering Framework</text>
      <text x="12" y="84" fill="#8b949e" font-size="11">21d ago</text>
    </g>
    <g transform="translate(406, 154)">
      <rect width="186" height="96" rx="6" fill="#161b22" stroke="#30363d"/>
      <circle cx="20" cy="20" r="4" fill="none" stroke="#6e7681" stroke-width="1.5"/>
      <text x="32" y="24" fill="#6e7681" font-size="11" font-weight="700" letter-spacing="0.6">FILAMENT</text>
      <text x="12" y="44" fill="#6e7681" font-size="10">C++ · main@idle</text>
      <text x="12" y="68" fill="#c9d1d9" font-size="11">Filament is a real-time physically …</text>
      <text x="12" y="84" fill="#8b949e" font-size="11">25d ago</text>
    </g>
    <g transform="translate(604, 154)">
      <rect width="186" height="96" rx="6" fill="#161b22" stroke="#30363d"/>
      <circle cx="20" cy="20" r="4" fill="none" stroke="#6e7681" stroke-width="1.5"/>
      <text x="32" y="24" fill="#6e7681" font-size="11" font-weight="700" letter-spacing="0.6">BGFX</text>
      <text x="12" y="44" fill="#6e7681" font-size="10">Mixed · master@idle</text>
      <text x="12" y="68" fill="#c9d1d9" font-size="11">Cross-platform, graphics API agnost…</text>
      <text x="12" y="84" fill="#8b949e" font-size="11">59d ago</text>
    </g>
  </g>
</svg>
