<svg xmlns="http://www.w3.org/2000/svg" viewBox="0 0 800 240" width="800" height="240" role="img" aria-label="recent commit activity monitor">
  <rect width="800" height="240" rx="10" fill="#0d1117" stroke="#30363d"/>
  <path d="M 0,10 A 10,10 0 0 1 10,0 L 790,0 A 10,10 0 0 1 800,10 L 800,36 L 0,36 Z" fill="#161b22"/>
  <line x1="0" y1="36" x2="800" y2="36" stroke="#30363d"/>
  <circle cx="22" cy="18" r="6" fill="#ff5f57"/>
  <circle cx="42" cy="18" r="6" fill="#febc2e"/>
  <circle cx="62" cy="18" r="6" fill="#28c840"/>
  <text x="400" y="22" text-anchor="middle" font-family="ui-monospace, SFMono-Regular, 'SF Mono', Menlo, Monaco, Consolas, monospace" font-size="11" fill="#6e7681" letter-spacing="1">recent-edits — active languages · Mixed</text>
  <g transform="translate(710, 22)" font-family="ui-monospace, SFMono-Regular, 'SF Mono', Menlo, Monaco, Consolas, monospace" font-size="11" letter-spacing="1">
    <circle cx="-12" cy="-4" r="4" fill="#4ade80">
      <animate attributeName="opacity" values="1;0.3;1" dur="1.8s" repeatCount="indefinite"/>
    </circle>
    <text x="0" y="0" fill="#4ade80">ACTIVE</text>
  </g>
  <g font-family="ui-monospace, SFMono-Regular, 'SF Mono', Menlo, Monaco, Consolas, monospace" font-size="12" fill="#c9d1d9">
    <text x="24" y="64"><tspan fill="#6e7681">PUSHES</tspan> <tspan fill="#c9d1d9" font-weight="700">2</tspan>  ·  <tspan fill="#6e7681">ACTIVITY</tspan></text>
    <rect x="260" y="55" width="200" height="11" fill="#21262d" rx="2"/>
    <rect x="260" y="55" height="11" fill="#4ade80" rx="2" width="128">
      <animate attributeName="width" values="112;128;120" dur="9s" repeatCount="indefinite"/>
    </rect>
    <text x="472" y="64" font-weight="700" fill="#fbbf24">64%</text>
    <line x1="24" y1="78" x2="776" y2="78" stroke="#21262d"/>
    <text x="24" y="64"><tspan fill="#6e7681">MIXED</tspan></text>
    <rect x="120" y="55" width="420" height="11" fill="#21262d" rx="2"/>
    <rect x="120" y="55" width="210" height="11" fill="#60a5fa" rx="2"><animate attributeName="width" values="202;210;206" dur="6s" repeatCount="indefinite"/></rect>
    <text x="560" y="64"><tspan fill="#c9d1d9" font-weight="700">50.0%</tspan></text>
    <text x="24" y="88"><tspan fill="#6e7681">TYPESCRIPT</tspan></text>
    <rect x="120" y="79" width="420" height="11" fill="#21262d" rx="2"/>
    <rect x="120" y="79" width="210" height="11" fill="#3178c6" rx="2"><animate attributeName="width" values="202;210;206" dur="6s" repeatCount="indefinite"/></rect>
    <text x="560" y="88"><tspan fill="#c9d1d9" font-weight="700">50.0%</tspan></text>
    <line x1="24" y1="164" x2="776" y2="164" stroke="#21262d"/>
    <text x="24" y="176" font-size="11" fill="#4b5563">[01:52:33] trianglestrip · be9191d · Show recent code activity in dalindev-style termina…</text>
    <text x="24" y="194" font-size="11" fill="#4b5563">[01:26:27] trianglestrip · 54c3ec5 · Restyle profile README after dalindev layout Co-aut…</text>
    <text x="24" y="212" font-size="11" fill="#4b5563">[09:02:21] trianglestrip · 9b03f7d · Add GADPP recent commits workflow and populate READ…</text>
  </g>
</svg>
